# xmcd CD database file
#
# Track frame offsets:
#	150
#	44197
#	65982
#	89714
#	111238
#	146255
#	169425
#	202704
#	225882
#	264124
#	285697
#	314566
#
# Disc length: 4578 seconds
#
# Revision: 0
# Processed by: cddbd v1.5.2PL0 Copyright (c) Steve Scherf et al.
# Submitted via: CDex 1.51
#
DISCID=b311e00c
DTITLE=Tangerine Dream - Madcap's Flaming Duty
DYEAR=2007
DGENRE=New Age
TTITLE0=Astrophel And Stella
TTITLE1=Shape My Sin
TTITLE2=The Blessed Damozel
TTITLE3=The Divorce
TTITLE4=A Dream Of Death
TTITLE5=Hear The Voice
TTITLE6=Lake Of Pontchartrain
TTITLE7=Mad Song
TTITLE8=One Hour Of Madness
TTITLE9=Man
TTITLE10=Hymn To Intellectual Beauty
TTITLE11=Solution Of All Problems
EXTD=YEAR: 2007
EXTT0=
EXTT1=
EXTT2=
EXTT3=
EXTT4=
EXTT5=
EXTT6=
EXTT7=
EXTT8=
EXTT9=
EXTT10=
EXTT11=
PLAYORDER=
